<svg id="Capa_1" enable-background="new 0 0 512 512" height="512" viewBox="0 0 512 512" width="512" xmlns="http://www.w3.org/2000/svg" xmlns:xlink="http://www.w3.org/1999/xlink"><linearGradient id="SVGID_1_" gradientUnits="userSpaceOnUse" x1="256" x2="256" y1="512" y2="0"><stop offset="0" stop-color="#fd5900"/><stop offset="1" stop-color="#ffde00"/></linearGradient><g><g><g><path d="m391 242c-41.355 0-75 33.645-75 75 0 36.219 25.808 66.522 60 73.491v16.509c0 8.271-6.729 15-15 15h-165v-62.58c17.459-6.192 30-22.865 30-42.42v-16.076c50.817-7.301 90-51.119 90-103.924v-122c0-24.813-20.187-45-45-45h-15v-15c0-8.284-6.716-15-15-15s-15 6.716-15 15v60c0 8.284 6.716 15 15 15s15-6.716 15-15v-15h15c8.271 0 15 6.729 15 15v122c0 41.355-33.645 75-75 75h-60s0 0 0 0c-41.355 0-75-33.645-75-75v-122c0-8.271 6.729-15 15-15h15v15c0 8.284 6.716 15 15 15s15-6.716 15-15v-60c0-8.284-6.716-15-15-15s-15 6.716-15 15v15h-15c-24.813 0-45 20.187-45 45v122c0 52.804 39.183 96.623 90 103.924v16.076c0 19.555 12.541 36.228 30 42.42v62.58h-45c-24.813 0-45 20.187-45 45s20.187 45 45 45h30c24.813 0 45-20.187 45-45v-15h165c24.813 0 45-20.187 45-45v-16.509c34.192-6.968 60-37.271 60-73.491 0-41.355-33.645-75-75-75zm-225 225c0 8.271-6.729 15-15 15h-30c-8.271 0-15-6.729-15-15s6.729-15 15-15h45zm15-135c-8.271 0-15-6.729-15-15v-15h30v15c0 8.271-6.729 15-15 15zm225 27.42v-12.42c0-8.284-6.716-15-15-15s-15 6.716-15 15v12.42c-17.459-6.192-30-22.865-30-42.42 0-24.813 20.187-45 45-45s45 20.187 45 45c0 19.555-12.541 36.228-30 42.42z" fill="url(#SVGID_1_)"/></g></g></g></svg>